<?xml version="1.0" encoding="UTF-8"?>
<svg id="Layer_1" data-name="Layer 1" xmlns="http://www.w3.org/2000/svg" xmlns:xlink="http://www.w3.org/1999/xlink" viewBox="0 0 216.52 48.47">
  <defs>
    <style>
      .cls-1 {
        clip-path: url(#clippath);
      }

      .cls-2, .cls-3 {
        fill: none;
      }

      .cls-2, .cls-4, .cls-5 {
        stroke-width: 0px;
      }

      .cls-3 {
        stroke: #000;
        stroke-width: .2px;
      }

      .cls-5 {
        fill: #fff;
      }
    </style>
    <clipPath id="clippath">
      <path class="cls-2" d="m3.24.06v7.07c0,6.81-.54,14,4.66,24.13,5.08,9.89,13.64,14.04,14.02,14.15,0,0,.01,0,.01,0h0s0,0,0,0,0,0,0,0c0,0,0,0,.01,0,.38-.11,8.94-4.26,14.02-14.15,5.2-10.13,4.66-17.32,4.66-24.13V.06H3.24Z"/>
    </clipPath>
  </defs>
  <g class="cls-1">
    <path class="cls-4" d="m43.93,0H.05s-.7,12.9,3.1,25.84h37.68c3.8-12.94,3.11-25.84,3.11-25.84M9.14,25.84v-5.24h3.31v-5.15h3.56v-5.14h3.52v-5.15h5v5.15h3.49v5.14h3.58v5.15h3.24v5.24H9.14Z"/>
    <path class="cls-5" d="m34.85,25.79v-5.19h-3.24v-5.15h-3.58v-5.14h-3.49v-5.15h-5v5.15h-3.52v5.14h-3.56v5.15h-3.31v5.19H3.15c2.62,8.96,10.18,17.94,18.84,22.67,8.65-4.74,16.21-13.72,18.84-22.67h-5.98Z"/>
  </g>
  <g>
    <path class="cls-3" d="m40.53.16v6.97c0,.58,0,1.17,0,1.76.04,6.43.09,13.08-4.65,22.32-5.03,9.8-13.54,13.92-13.94,14.1-.64-.29-8.99-4.43-13.95-14.1C3.25,21.96,3.29,15.31,3.34,8.88c0-.59,0-1.18,0-1.76V.16h37.19Z"/>
    <g>
      <path class="cls-4" d="m60.15,28.89l-3.32,9.95h-1.91l-3.28-9.95h1.58l2.66,8.48,2.66-8.48h1.6Z"/>
      <path class="cls-4" d="m61.73,28.89h1.48v9.95h-1.48v-9.95Z"/>
      <path class="cls-4" d="m65.66,28.89h3.36c2.9,0,4.85,1.96,4.85,4.98s-1.88,4.98-4.85,4.98h-3.36v-9.95Zm3.33,8.62c2.09,0,3.33-1.33,3.33-3.65s-1.29-3.65-3.33-3.65h-1.85v7.29h1.85Z"/>
      <path class="cls-4" d="m81.95,37.52v1.33h-6.13v-9.95h6.02v1.33h-4.54v2.83h4.27v1.32h-4.27v3.14h4.65Z"/>
      <path class="cls-4" d="m86.82,34.91h-1.43v3.94h-1.48v-9.95h3.08c2.21,0,3.49,1.1,3.49,3.01,0,1.45-.76,2.43-2.09,2.82l2.54,4.12h-1.71l-2.4-3.94Zm-1.43-1.28h1.58c1.22,0,1.88-.6,1.88-1.73s-.66-1.68-1.88-1.68h-1.58v3.41Z"/>
      <path class="cls-4" d="m98.82,37.52v1.33h-6.14v-9.95h6.02v1.33h-4.54v2.83h4.27v1.32h-4.27v3.14h4.65Z"/>
      <path class="cls-4" d="m108.62,33.46v4.2c-.97.8-2.37,1.28-3.77,1.28-2.83,0-4.72-2.05-4.72-4.94,0-3.14,1.82-5.2,4.65-5.2,1.67,0,2.68.56,3.52,1.21l-.88,1.09c-.76-.52-1.53-.9-2.69-.9-1.86,0-3.05,1.45-3.05,3.7s1.29,3.77,3.31,3.77c.78,0,1.55-.21,2.13-.58v-2.3h-2.56v-1.32h4.08Z"/>
      <path class="cls-4" d="m116.19,36.41h-3.98l-.8,2.43h-1.57l3.4-9.95h1.89l3.43,9.95h-1.58l-.8-2.43Zm-.43-1.33l-1.55-4.75-1.55,4.75h3.11Zm-2.97-8.3c0-.75.62-1.32,1.42-1.32s1.43.57,1.43,1.32-.6,1.3-1.43,1.3-1.42-.57-1.42-1.3Zm.79,0c0,.39.24.64.63.64s.67-.25.67-.64-.27-.67-.67-.67-.63.27-.63.67Z"/>
      <path class="cls-4" d="m126.23,37.52v1.33h-6.14v-9.95h6.02v1.33h-4.54v2.83h4.27v1.32h-4.27v3.14h4.65Z"/>
      <path class="cls-4" d="m135.87,28.89v9.95h-1.78l-4.48-7.78v7.78h-1.44v-9.95h1.78l4.48,7.77v-7.77h1.44Z"/>
      <path class="cls-4" d="m138.31,28.89h3.36c2.9,0,4.85,1.96,4.85,4.98s-1.88,4.98-4.85,4.98h-3.36v-9.95Zm3.33,8.62c2.09,0,3.33-1.33,3.33-3.65s-1.29-3.65-3.33-3.65h-1.85v7.29h1.85Z"/>
      <path class="cls-4" d="m154.59,37.52v1.33h-6.13v-9.95h6.02v1.33h-4.54v2.83h4.27v1.32h-4.27v3.14h4.65Z"/>
      <path class="cls-4" d="m160.38,37.69l.85-1.08c.73.61,1.44.97,2.48.97,1.18,0,1.89-.63,1.89-1.45,0-2.14-4.89-1.42-4.89-4.6,0-1.65,1.28-2.73,3.05-2.73,1.25,0,2.26.44,2.98,1.1l-.91,1.01c-.57-.48-1.19-.77-2-.77-.91,0-1.65.47-1.65,1.28,0,2.05,4.89,1.36,4.89,4.62,0,1.78-1.39,2.9-3.36,2.9-1.43,0-2.48-.46-3.33-1.25Z"/>
      <path class="cls-4" d="m171.49,34.22l-1.13,1.16v3.47h-1.48v-9.95h1.48v4.64l4.55-4.64h1.82l-4.2,4.28,4.3,5.67h-1.82l-3.52-4.63Z"/>
      <path class="cls-4" d="m177.21,33.87c0-2.99,1.96-5.07,4.79-5.07s4.8,2.08,4.8,5.07-1.96,5.07-4.8,5.07-4.79-2.08-4.79-5.07Zm8.04,0c0-2.25-1.27-3.69-3.25-3.69s-3.25,1.44-3.25,3.69,1.27,3.69,3.25,3.69,3.25-1.45,3.25-3.69Z"/>
      <path class="cls-4" d="m194.97,37.52v1.33h-6.23v-9.95h1.48v8.62h4.75Z"/>
      <path class="cls-4" d="m202.68,37.52v1.33h-6.14v-9.95h6.02v1.33h-4.54v2.83h4.27v1.32h-4.27v3.14h4.65Z"/>
    </g>
    <g>
      <path class="cls-4" d="m52.64,2.94h7.13c6.15,0,10.12,3.84,10.12,9.76s-3.97,9.76-10.12,9.76h-7.13V2.94Zm7.11,16.49c4.03,0,6.44-2.53,6.44-6.73s-2.41-6.73-6.44-6.73h-3.51v13.46h3.51Z"/>
      <path class="cls-4" d="m79.41,14.94h-2.35v7.51h-3.6V2.94h6.53c4.58,0,7.31,2.24,7.31,6,0,2.77-1.48,4.72-4.12,5.56l5.1,7.96h-4.09l-4.79-7.51Zm-2.35-2.9h2.93c2.18,0,3.39-1.12,3.39-3.1s-1.22-2.97-3.39-2.97h-2.93v6.08Z"/>
      <path class="cls-4" d="m111.11,12.7c0,5.87-4.12,9.94-10.07,9.94-2.03,0-3.83-.47-5.34-1.33l-1.07,1.36-2.09-1.3,1.22-1.51c-1.77-1.75-2.78-4.23-2.78-7.15,0-5.87,4.12-9.94,10.07-9.94,1.97,0,3.77.44,5.25,1.28l1.19-1.51,2.12,1.3-1.33,1.67c1.8,1.75,2.84,4.25,2.84,7.2Zm-15.17,4.38l8.3-10.44c-.93-.47-1.97-.73-3.19-.73-3.89,0-6.35,2.61-6.35,6.78,0,1.75.43,3.24,1.25,4.38Zm11.46-4.38c0-1.8-.46-3.31-1.31-4.46l-8.33,10.46c.93.52,2.03.78,3.28.78,3.89,0,6.35-2.64,6.35-6.78Z"/>
      <path class="cls-4" d="m137.35,2.94v19.52h-3.6V7.42l-5.69,15.03h-4.09l-5.83-15.06v15.06h-3.48V2.94h5.28l6.06,15.97,5.95-15.97h5.39Z"/>
      <path class="cls-4" d="m157.94,5.96h-6.7v16.49h-3.6V5.96h-6.67v-3.03h16.97v3.03Z"/>
      <path class="cls-4" d="m160.55,12.7c0-5.87,4.12-9.94,10.07-9.94s10.07,4.07,10.07,9.94-4.12,9.94-10.07,9.94-10.07-4.07-10.07-9.94Zm16.42,0c0-4.17-2.46-6.78-6.35-6.78s-6.35,2.61-6.35,6.78,2.47,6.78,6.35,6.78,6.35-2.64,6.35-6.78Z"/>
      <path class="cls-4" d="m190.19,14.94h-2.35v7.51h-3.6V2.94h6.53c4.58,0,7.31,2.24,7.31,6,0,2.77-1.48,4.72-4.12,5.56l5.1,7.96h-4.09l-4.79-7.51Zm-2.35-2.9h2.93c2.18,0,3.39-1.12,3.39-3.1s-1.22-2.97-3.39-2.97h-2.93v6.08Z"/>
      <path class="cls-4" d="m216.52,9.2c0,3.91-2.76,6.26-7.4,6.26h-2.75v6.99h-3.6V2.94h6.55c4.5,0,7.19,2.35,7.19,6.26Zm-3.54,0c0-2.09-1.45-3.24-4.06-3.24h-2.55v6.47h2.75c2.41,0,3.86-1.15,3.86-3.24Z"/>
    </g>
  </g>
</svg>