<svg width="407" height="76" viewBox="0 0 407 76" fill="none" xmlns="http://www.w3.org/2000/svg">
<g clip-path="url(#clip0_2_60)">
<path d="M407.19 1.62109L384.5 75.0811H369.07L355.26 29.5511C354.99 28.8411 354.74 28.0611 354.5 27.2111C354.26 26.3511 354.03 25.451 353.79 24.511C353.55 25.451 353.32 26.3511 353.08 27.2111C352.84 28.0711 352.59 28.8511 352.32 29.5511L338.3 75.0811H322.87L300.18 1.62109H314.5C315.98 1.62109 317.21 1.9611 318.21 2.6311C319.2 3.3011 319.85 4.19109 320.15 5.30109L330.23 43.6211C330.53 44.8311 330.84 46.1511 331.14 47.5811C331.44 49.0111 331.74 50.5011 332.05 52.0411C332.65 48.8811 333.39 46.0711 334.27 43.6211L346.17 5.30109C346.47 4.36109 347.12 3.5111 348.11 2.7511C349.1 1.9911 350.3 1.62109 351.71 1.62109H356.75C358.23 1.62109 359.42 1.97106 360.33 2.65106C361.24 3.34106 361.93 4.22109 362.4 5.30109L374.2 43.6211C375.07 45.9711 375.81 48.6411 376.42 51.6411C376.69 50.1311 376.97 48.7111 377.25 47.3811C377.54 46.0511 377.83 44.8011 378.13 43.6211L388.21 5.30109C388.48 4.33109 389.12 3.47108 390.13 2.73108C391.14 1.99108 392.35 1.62109 393.76 1.62109H407.19Z" fill="black"/>
<path d="M299 38.3311C299 43.6411 298.08 48.5811 296.25 53.1511C294.42 57.7211 291.84 61.701 288.51 65.071C285.18 68.451 281.18 71.091 276.49 73.011C271.8 74.931 266.6 75.8811 260.89 75.8811C255.18 75.8811 249.97 74.921 245.26 73.011C240.55 71.091 236.53 68.451 233.19 65.071C229.85 61.691 227.26 57.7211 225.43 53.1511C223.6 48.5811 222.68 43.6411 222.68 38.3311C222.68 33.0211 223.6 28.081 225.43 23.511C227.26 18.941 229.85 14.9711 233.19 11.6111C236.53 8.25108 240.56 5.6111 245.26 3.6911C249.97 1.7711 255.18 0.821045 260.89 0.821045C266.6 0.821045 271.81 1.79107 276.49 3.72107C281.18 5.65107 285.19 8.30107 288.51 11.6611C291.84 15.0211 294.42 18.9911 296.25 23.5611C298.08 28.1311 299 33.0511 299 38.3311ZM281.55 38.3311C281.55 34.7011 281.08 31.4311 280.14 28.5211C279.2 25.6111 277.85 23.1511 276.08 21.1311C274.31 19.1111 272.16 17.5711 269.6 16.4911C267.05 15.4111 264.14 14.8811 260.88 14.8811C257.59 14.8811 254.65 15.4211 252.08 16.4911C249.51 17.5711 247.34 19.1111 245.58 21.1311C243.82 23.1511 242.46 25.6111 241.52 28.5211C240.58 31.4311 240.11 34.7011 240.11 38.3311C240.11 41.9911 240.58 45.2811 241.52 48.1911C242.46 51.1011 243.81 53.5611 245.58 55.5811C247.34 57.6011 249.51 59.1311 252.08 60.1911C254.65 61.2511 257.58 61.7811 260.88 61.7811C264.14 61.7811 267.05 61.2511 269.6 60.1911C272.15 59.1311 274.31 57.5911 276.08 55.5811C277.85 53.5711 279.2 51.1011 280.14 48.1911C281.08 45.2811 281.55 41.9911 281.55 38.3311Z" fill="black"/>
<path d="M212.69 1.62109V75.0811H203.82C202.51 75.0811 201.41 74.871 200.52 74.451C199.63 74.031 198.75 73.301 197.87 72.261L163.23 28.451C163.36 29.761 163.46 31.031 163.51 32.261C163.56 33.491 163.59 34.6411 163.59 35.7111V75.0911H148.57V1.6311H157.54C158.28 1.6311 158.9 1.66108 159.41 1.73108C159.91 1.80108 160.37 1.92108 160.77 2.11108C161.17 2.30108 161.56 2.56105 161.93 2.89105C162.3 3.23105 162.72 3.6811 163.19 4.2511L198.13 48.3711C197.96 46.9611 197.84 45.591 197.78 44.261C197.71 42.931 197.68 41.6811 197.68 40.5011V1.6311H212.69V1.62109Z" fill="black"/>
<path d="M107.92 14.7311V31.8711H131.01V44.4711H107.92V61.9711H138.07V75.0811H90.78V1.62109H138.07V14.7311H107.92Z" fill="black"/>
<path d="M57.75 74.9511C57.13 74.9411 56.54 74.7011 56.09 74.2611L38.38 57.0311C38.38 57.0311 37.78 55.7111 39.04 55.5911C40.3 55.4711 50.42 54.6711 54.93 43.5111C59.44 32.3511 50.52 22.7712 46.58 20.8612C42.64 18.9412 34.98 17.3712 28.22 20.8612C21.46 24.3512 18.87 33.4812 18.87 34.6112V58.1912C18.87 58.2612 18.87 58.3311 18.89 58.3911C18.95 58.7311 19.24 59.7711 20.43 61.0211C21.9 62.5611 32.66 73.1812 32.66 73.1812C32.66 73.1812 32.66 73.1911 32.67 73.2011C33.08 73.9711 32.5 74.8911 31.63 74.8911L1.49001 74.8612C1.49001 74.8612 0 74.5712 0 73.5612V33.8311C0 33.7911 -5.49294e-06 33.7611 0.00999451 33.7211C0.159995 32.2911 3.47 3.49116 33.36 0.241161C64.01 -3.09884 85.06 28.9012 69.82 56.1312C69.82 56.1312 68.33 58.3911 69.44 59.5111C70.55 60.6311 83.48 73.5012 83.48 73.5012C83.48 73.5012 84.01 74.4312 83.29 74.8612C82.65 75.2512 62.43 75.0111 57.75 74.9511Z" fill="black"/>
</g>
<defs>
<clipPath id="clip0_2_60">
<rect width="407" height="76" fill="white"/>
</clipPath>
</defs>
</svg>
